<?xml version="1.0" encoding="UTF-8" standalone="no"?>
<!-- Created with Inkscape (http://www.inkscape.org/) -->

<svg
   version="1.1"
   id="svg2"
   xml:space="preserve"
   width="1440"
   height="1440"
   viewBox="0 0 1440 1440"
   sodipodi:docname="Express_24__Экспресс_24.ai"
   xmlns:inkscape="http://www.inkscape.org/namespaces/inkscape"
   xmlns:sodipodi="http://sodipodi.sourceforge.net/DTD/sodipodi-0.dtd"
   xmlns="http://www.w3.org/2000/svg"
   xmlns:svg="http://www.w3.org/2000/svg"><defs
     id="defs6"><clipPath
       clipPathUnits="userSpaceOnUse"
       id="clipPath20"><path
         d="M 0,1080 H 1080 V 0 H 0 Z"
         id="path18" /></clipPath></defs><sodipodi:namedview
     id="namedview4"
     pagecolor="#ffffff"
     bordercolor="#666666"
     borderopacity="1.0"
     inkscape:pageshadow="2"
     inkscape:pageopacity="0.0"
     inkscape:pagecheckerboard="0" /><g
     id="g8"
     inkscape:groupmode="layer"
     inkscape:label="Express_24__Экспресс_24"
     transform="matrix(1.3333333,0,0,-1.3333333,0,1440)"><g
       id="g10"
       transform="translate(478.3862,550.5137)"><path
         d="M 0,0 H -25.102 V 12.306 H -1.711 V 21.76 H -25.102 V 32.518 H -0.57 v 9.291 H -37.897 V -9.454 H 0 Z"
         style="fill:#1a1a18;fill-opacity:1;fill-rule:nonzero;stroke:none"
         id="path12" /></g><g
       id="g14"><g
         id="g16"
         clip-path="url(#clipPath20)"><g
           id="g22"
           transform="translate(572.0293,583.0317)"><path
             d="m 0,0 h 4.564 c 6.846,0 9.373,-1.63 9.373,-5.949 0,-3.831 -2.038,-5.95 -7.906,-5.95 h -5.95 z m -12.795,9.291 v -51.263 h 12.714 v 20.619 h 10.187 c 11.899,0 16.952,8.313 16.952,15.485 0,7.009 -5.297,15.241 -17.034,15.241 z"
             style="fill:#1a1a18;fill-opacity:1;fill-rule:nonzero;stroke:none"
             id="path24" /></g><g
           id="g26"
           transform="translate(623.4561,583.0317)"><path
             d="m 0,0 h 6.438 c 4.808,0 7.335,-1.956 7.335,-5.787 0,-4.401 -3.504,-5.867 -7.009,-5.867 H 0 Z m -12.796,9.291 v -51.263 h 12.714 v 20.864 h 3.668 c 6.846,0 8.883,-9.78 14.425,-20.864 h 14.18 c -7.253,15.077 -8.801,21.434 -14.098,23.961 5.868,2.689 8.802,6.845 8.802,12.551 0,7.661 -6.276,14.751 -16.79,14.751 z"
             style="fill:#1a1a18;fill-opacity:1;fill-rule:nonzero;stroke:none"
             id="path28" /></g><g
           id="g30"
           transform="translate(709.5195,550.5137)"><path
             d="M 0,0 H -25.021 V 12.306 H -1.63 v 9.454 h -23.391 v 10.758 h 24.613 v 9.291 H -37.816 V -9.454 H 0 Z"
             style="fill:#1a1a18;fill-opacity:1;fill-rule:nonzero;stroke:none"
             id="path32" /></g><g
           id="g34"
           transform="translate(762.9014,589.144)"><path
             d="m 0,0 c -6.438,2.771 -11.654,3.912 -17.359,3.912 -11.899,0 -19.56,-5.868 -19.56,-14.751 0,-18.501 26.161,-15.322 26.161,-23.717 0,-3.015 -2.689,-4.727 -7.498,-4.727 -5.623,0 -10.187,1.793 -17.603,6.602 v -11.084 c 5.052,-2.69 9.535,-4.971 18.5,-4.971 11.41,0 19.722,5.704 19.722,15.485 0,17.929 -26.161,15.729 -26.161,23.471 0,2.608 2.934,4.157 7.498,4.157 4.402,0 8.802,-1.304 16.219,-4.564 z"
             style="fill:#1a1a18;fill-opacity:1;fill-rule:nonzero;stroke:none"
             id="path36" /></g><g
           id="g38"
           transform="translate(817.0986,589.144)"><path
             d="m 0,0 c -6.438,2.771 -11.654,3.912 -17.359,3.912 -11.9,0 -19.56,-5.868 -19.56,-14.751 0,-18.501 26.161,-15.322 26.161,-23.717 0,-3.015 -2.689,-4.727 -7.498,-4.727 -5.624,0 -10.187,1.793 -17.603,6.602 v -11.084 c 5.052,-2.69 9.535,-4.971 18.5,-4.971 11.41,0 19.722,5.704 19.722,15.485 0,17.929 -26.161,15.729 -26.161,23.471 0,2.608 2.934,4.157 7.498,4.157 4.402,0 8.802,-1.304 16.219,-4.564 l 0,10.187 z"
             style="fill:#1a1a18;fill-opacity:1;fill-rule:nonzero;stroke:none"
             id="path40" /></g><g
           id="g42"
           transform="translate(891.5078,551.5728)"><path
             d="m 0,0 h -16.626 c 9.209,11.655 13.937,20.538 13.937,26.895 0,9.128 -6.195,14.588 -16.219,14.588 -4.89,0 -8.802,-1.303 -14.344,-4.889 V 25.917 c 4.075,3.994 8.721,6.438 12.307,6.438 3.83,0 6.845,-3.422 6.845,-7.334 0,-3.994 -1.303,-7.743 -5.542,-14.181 -3.667,-5.624 -8.883,-13.203 -14.262,-19.805 v -1.467 H 0 Z"
             style="fill:#1a1a18;fill-opacity:1;fill-rule:nonzero;stroke:none"
             id="path44" /></g><g
           id="g46"
           transform="translate(925.0859,575.9414)"><path
             d="M 0,0 H 0.163 V -14.018 H -10.84 Z M 11.491,17.115 H 4.237 L -19.968,-14.018 V -22.25 H 0 V -34.8 h 11.409 v 12.55 h 3.505 v 8.232 h -3.505 v 31.133 z"
             style="fill:#1a1a18;fill-opacity:1;fill-rule:nonzero;stroke:none"
             id="path48" /></g><g
           id="g50"
           transform="translate(519.2178,576.5117)"><path
             d="M 0,0 -10.188,15.811 H -24.694 L -8.313,-8.883 -25.265,-35.452 h 14.181 L 0,-17.604 11.084,-35.452 H 25.347 L 8.313,-8.883 24.775,15.811 H 10.269 Z"
             style="fill:#1a1a18;fill-opacity:1;fill-rule:nonzero;stroke:none"
             id="path52" /></g><g
           id="g54"
           transform="translate(888.8994,512.5342)"><path
             d="M 0,0 H -1.874 L -18.663,-20.13 V 0 h -3.83 v -26.812 h 1.793 l 16.788,19.803 v -19.315 h 3.831 z m -52.975,0 v -26.405 h 3.831 v 12.551 h 1.06 c 2.526,0 5.134,-1.63 7.416,-5.461 l 4.075,-7.172 h 4.401 l -4.646,7.987 c -1.874,3.26 -3.911,5.135 -5.786,6.031 1.467,0.734 2.934,2.69 3.668,4.646 1.059,3.096 1.793,4.4 5.134,4.4 V 0 h -0.652 c -3.749,0 -5.787,-1.304 -7.58,-6.03 -1.548,-3.912 -3.423,-4.646 -6.193,-4.646 h -0.979 V 0.082 Z m -22.819,-14.751 h 4.646 c 3.993,0 5.867,-1.712 5.867,-4.075 0,-1.956 -1.222,-4.156 -5.704,-4.156 h -4.809 z m 0,11.328 h 3.504 c 3.505,0 4.645,-1.711 4.645,-3.667 0,-2.852 -1.793,-4.156 -5.623,-4.156 h -2.526 z m -3.749,-22.982 h 8.965 c 6.601,0 9.128,3.83 9.128,7.009 0,3.585 -2.446,6.194 -6.358,6.845 v 0.082 c 2.772,1.141 4.076,2.934 4.076,5.705 0,3.26 -2.446,6.764 -8.15,6.764 h -7.661 z m -20.945,20.782 4.319,-9.617 h -8.313 z m 1.303,5.786 h -2.689 l -11.41,-26.568 h 3.831 l 3.26,7.742 h 11.247 l 3.504,-7.742 h 3.831 z M -118.663,0 h -22.086 v -3.423 h 9.128 v -22.982 h 3.83 v 23.064 h 9.128 z m -29.503,-1.793 c -3.586,1.549 -6.356,2.119 -9.128,2.119 -8.394,0 -14.426,-5.868 -14.426,-13.936 0,-5.542 4.402,-13.202 14.263,-13.202 4.075,0 6.928,0.977 9.617,2.281 v 4.075 c -2.933,-1.956 -6.275,-2.934 -9.291,-2.934 -6.357,0 -10.677,4.075 -10.677,10.106 0,5.787 4.565,10.187 10.514,10.187 3.016,0 5.868,-0.896 9.128,-2.77 z m -56.561,-11.409 c 0,5.786 4.402,10.105 10.269,10.105 5.95,0 10.351,-4.319 10.351,-10.105 0,-5.787 -4.401,-10.107 -10.351,-10.107 -5.867,0 -10.269,4.32 -10.269,10.107 m -3.912,0 c 0,-7.172 5.461,-13.61 14.181,-13.61 8.884,0 14.344,6.438 14.344,13.61 0,7.416 -5.46,13.61 -14.181,13.61 -8.72,-0.082 -14.344,-6.275 -14.344,-13.61 m -21.271,7.823 6.683,-17.684 h -12.959 z m 14.344,-17.603 h -3.83 l -9.128,23.227 h -2.69 l -8.721,-23.227 h -3.83 v -8.313 h 3.83 v 4.89 h 20.62 v -4.89 h 3.831 v 8.313 z m -57.375,17.359 4.319,-9.617 h -8.314 z m 1.384,5.786 h -2.689 l -11.409,-26.568 h 3.83 l 3.26,7.742 h 11.247 l 3.505,-7.742 h 3.83 z m -34.881,-14.181 h 5.053 c 3.911,0 5.867,-1.629 5.867,-4.563 0,-2.445 -1.956,-4.565 -5.133,-4.565 h -5.787 z m -3.831,-12.387 h 9.047 c 5.623,0 9.535,2.933 9.535,7.905 0,4.972 -3.912,7.987 -9.535,7.987 h -5.38 v 7.172 h 13.04 v 3.423 h -16.87 v -26.487 z m -29.747,15.729 c -2.771,0 -4.645,0.734 -6.194,4.646 -1.874,4.645 -3.831,6.03 -7.58,6.03 h -0.651 v -3.423 c 3.422,0 4.075,-1.223 5.134,-4.4 0.734,-1.956 2.445,-3.912 3.994,-4.646 -2.12,-0.978 -3.505,-1.956 -5.135,-4.401 l -6.357,-9.617 h 4.401 l 5.134,7.987 c 1.467,2.2 4.076,4.564 7.172,4.564 v -12.551 h 3.831 v 12.633 c 2.934,0 5.705,-2.283 7.172,-4.564 l 5.134,-7.987 h 4.401 l -6.357,9.617 c -1.63,2.444 -2.934,3.423 -5.134,4.4 1.63,0.734 3.26,2.772 3.993,4.646 1.06,3.096 1.793,4.401 5.135,4.401 V 0 h -0.489 c -3.749,0 -5.786,-1.304 -7.579,-6.03 -1.549,-3.912 -3.423,-4.646 -6.195,-4.646 V 0.082 h -3.83 z M -384.433,0 h -3.831 l 11.573,-26.487 c -0.163,-1.793 -2.037,-2.934 -3.015,-2.934 -1.549,0 -2.69,0.326 -3.505,1.223 v -3.423 c 0.897,-0.57 2.038,-0.979 3.26,-0.979 3.016,0 4.972,1.793 6.602,6.032 l 9.861,26.487 h -3.749 l -7.742,-22.086 z m -20.294,0.163 h -2.689 l -11.41,-26.568 h 3.83 l 8.802,21.515 9.373,-21.515 h 3.83 z m -20.863,-1.956 c -3.586,1.549 -6.357,2.119 -9.128,2.119 -8.395,0 -14.426,-5.868 -14.426,-13.936 0,-5.542 4.401,-13.202 14.263,-13.202 4.074,0 6.927,0.977 9.616,2.281 v 4.075 c -2.934,-1.956 -6.275,-2.934 -9.209,-2.934 -6.357,0 -10.676,4.075 -10.676,10.106 0,5.787 4.564,10.187 10.513,10.187 3.015,0 5.868,-0.896 9.128,-2.77 v 4.074 z"
             style="fill:#1a1a18;fill-opacity:1;fill-rule:nonzero;stroke:none"
             id="path56" /></g><g
           id="g58"
           transform="translate(278.3862,634.9473)"><path
             d="m 0,0 c 52.404,0 94.947,-42.543 94.947,-94.947 0,-52.405 -42.543,-94.948 -94.947,-94.948 -52.404,0 -94.947,42.543 -94.947,94.948 C -94.865,-42.461 -52.404,0 0,0"
             style="fill:#ffec00;fill-opacity:1;fill-rule:nonzero;stroke:none"
             id="path60" /></g><g
           id="g62"
           transform="translate(278.3862,485.3135)"><path
             d="m 0,0 c -76.447,0 -138.305,23.554 -138.305,37.49 0,14.018 32.437,22.82 79.218,31.785 -0.081,-2.608 -0.081,-5.134 -0.081,-7.742 1.956,-10.269 27.546,-15.73 59.25,-15.73 31.703,0 57.294,5.787 59.25,15.73 0,2.608 0,5.134 -0.082,7.742 46.7,-8.883 79.218,-17.848 79.218,-31.785 C 138.386,23.554 76.447,0 0,0"
             style="fill:#8cc798;fill-opacity:1;fill-rule:nonzero;stroke:none"
             id="path64" /></g><g
           id="g66"
           transform="translate(332.1763,489.2256)"><path
             d="m 0,0 c -12.307,-11.328 -31.785,-18.663 -53.79,-18.663 -21.923,0 -41.483,7.335 -53.708,18.663 16.463,-2.445 34.719,-3.912 53.708,-3.912 19.071,0 37.327,1.467 53.79,3.912"
             style="fill:#8cc798;fill-opacity:1;fill-rule:nonzero;stroke:none"
             id="path68" /></g><g
           id="g70"
           transform="translate(277.1636,470.5625)"><path
             d="m 0,0 c -21.434,0.244 -40.423,7.498 -52.404,18.663 8.639,-1.223 17.767,-2.2 27.221,-2.934 C -23.472,13.284 -16.625,5.053 0,0"
             style="fill:#4fa26c;fill-opacity:1;fill-rule:nonzero;stroke:none"
             id="path72" /></g><g
           id="g74"
           transform="translate(278.4678,609.519)"><path
             d="m 0,0 c -30.888,0 -56.968,-24.042 -59.168,-54.931 v -2.934 c 1.711,-8.72 27.546,-15.729 59.25,-15.729 31.703,0 57.538,6.846 59.25,15.729 l -0.082,2.853 C 56.968,-24.124 30.888,0 0,0"
             style="fill:#009de2;fill-opacity:1;fill-rule:nonzero;stroke:none"
             id="path76" /></g><g
           id="g78"
           transform="translate(319.625,540.5703)"><path
             d="m 0,0 0.571,0.082 c 4.971,1.304 16.381,4.971 17.603,10.92 l -0.081,2.853 c -1.467,20.212 -13.366,38.549 -31.622,48.166 -0.896,0.408 -1.467,0.815 -2.689,1.304 0.896,-0.733 16.3,-13.284 16.3,-43.195 L 0.082,0 Z"
             style="fill:#a0d8f7;fill-opacity:1;fill-rule:nonzero;stroke:none"
             id="path80" /></g><g
           id="g82"
           transform="translate(219.2993,551.5728)"><path
             d="m 0,0 v 0 -4.808 c 1.956,-10.27 27.547,-15.73 59.25,-15.73 31.703,0 57.294,5.787 59.25,15.73 V 0 C 116.789,-8.72 90.953,-15.729 59.25,-15.729 27.547,-15.729 1.63,-8.72 0,0"
             style="fill:#ffec00;fill-opacity:1;fill-rule:nonzero;stroke:none"
             id="path84" /></g><g
           id="g86"
           transform="translate(278.4678,517.9141)"><path
             d="m 0,0 v 0 c 5.297,0 9.536,-4.32 9.536,-9.536 v -0.081 c -2.69,-1.305 -5.95,-2.038 -9.536,-2.038 -3.586,0 -6.846,0.733 -9.536,2.038 v 0.081 C -9.536,-4.32 -5.216,0 0,0"
             style="fill:#ffec00;fill-opacity:1;fill-rule:nonzero;stroke:none"
             id="path88" /></g><g
           id="g90"
           transform="translate(268.9321,508.2148)"><path
             d="M 0,0 V 0 0.245 C 0.082,4.401 2.934,7.906 6.683,9.128 L 6.928,9.21 7.172,9.291 7.335,9.373 H 7.417 L 7.58,9.454 H 7.661 7.743 L 7.987,9.536 8.15,9.617 H 8.232 8.395 8.476 8.639 8.721 8.884 9.047 C 8.965,9.536 4.89,7.172 4.157,2.771 3.912,1.305 3.912,-0.081 3.912,-1.304 2.445,-0.978 1.06,-0.488 0,0"
             style="fill:#ffcb00;fill-opacity:1;fill-rule:nonzero;stroke:none"
             id="path92" /></g><g
           id="g94"
           transform="translate(288.0034,508.2148)"><path
             d="m 0,0 v -2.771 c -2.689,-1.303 -5.95,-2.038 -9.536,-2.038 -3.586,0 -6.845,0.735 -9.535,2.038 V 0 c 2.69,-1.304 5.949,-2.037 9.535,-2.037 3.505,0 6.928,0.814 9.536,2.037"
             style="fill:#ee7c00;fill-opacity:1;fill-rule:nonzero;stroke:none"
             id="path96" /></g><g
           id="g98"
           transform="translate(224.5967,522.8037)"><path
             d="M 0,0 V 0 C 5.297,0 9.535,-4.319 9.535,-9.535 V -9.617 C 6.846,-10.921 3.586,-11.654 0,-11.654 c -3.586,0 -6.846,0.733 -9.536,2.037 v 0.082 C -9.617,-4.319 -5.216,0 0,0"
             style="fill:#ffec00;fill-opacity:1;fill-rule:nonzero;stroke:none"
             id="path100" /></g><g
           id="g102"
           transform="translate(214.9795,513.1865)"><path
             d="M 0,0 V 0 0.244 C 0.082,4.401 2.934,7.905 6.683,9.128 L 6.928,9.21 7.172,9.291 7.335,9.373 H 7.417 L 7.58,9.454 H 7.661 7.743 L 7.987,9.535 H 8.15 8.231 8.395 8.476 8.639 8.721 8.884 9.046 C 8.965,9.454 4.89,7.091 4.157,2.689 3.912,1.223 3.912,-0.163 3.912,-1.386 2.527,-0.978 1.141,-0.57 0,0"
             style="fill:#ffcb00;fill-opacity:1;fill-rule:nonzero;stroke:none"
             id="path104" /></g><g
           id="g106"
           transform="translate(234.1318,513.1865)"><path
             d="m 0,0 v -2.771 c -2.689,-1.304 -5.949,-2.038 -9.535,-2.038 -3.586,0 -6.846,0.734 -9.536,2.038 V 0 c 2.69,-1.304 5.95,-2.037 9.536,-2.037 C -6.031,-2.119 -2.689,-1.304 0,0"
             style="fill:#ee7c00;fill-opacity:1;fill-rule:nonzero;stroke:none"
             id="path108" /></g><g
           id="g110"
           transform="translate(329.5679,522.8037)"><path
             d="m 0,0 v 0 c 5.298,0 9.536,-4.319 9.536,-9.535 v -0.082 c -2.69,-1.304 -5.95,-2.037 -9.536,-2.037 -3.586,0 -6.846,0.733 -9.535,2.037 v 0.082 C -9.535,-4.319 -5.216,0 0,0"
             style="fill:#ffec00;fill-opacity:1;fill-rule:nonzero;stroke:none"
             id="path112" /></g><g
           id="g114"
           transform="translate(320.0327,513.1865)"><path
             d="M 0,0 V 0 0.244 C 0.082,4.401 2.934,7.905 6.683,9.128 L 6.927,9.21 7.172,9.291 7.335,9.373 H 7.417 L 7.58,9.454 H 7.661 7.742 L 7.987,9.535 H 8.15 8.231 8.395 8.476 8.639 8.72 8.883 9.046 C 8.965,9.454 4.89,7.091 4.156,2.689 3.912,1.223 3.912,-0.163 3.912,-1.386 2.445,-0.978 1.222,-0.57 0,0"
             style="fill:#ffcb00;fill-opacity:1;fill-rule:nonzero;stroke:none"
             id="path116" /></g><g
           id="g118"
           transform="translate(339.1035,513.1865)"><path
             d="m 0,0 v -2.771 c -2.689,-1.304 -5.95,-2.038 -9.536,-2.038 -3.586,0 -6.845,0.734 -9.535,2.038 V 0 c 2.69,-1.304 5.949,-2.037 9.535,-2.037 C -5.95,-2.119 -2.608,-1.304 0,0"
             style="fill:#ee7c00;fill-opacity:1;fill-rule:nonzero;stroke:none"
             id="path120" /></g><g
           id="g122"
           transform="translate(365.9985,537.8809)"><path
             d="M 0,0 V 0 C 5.297,0 9.535,-4.319 9.535,-9.535 V -9.617 C 6.846,-10.921 3.586,-11.654 0,-11.654 c -3.586,0 -6.846,0.733 -9.536,2.037 v 0.082 C -9.536,-4.319 -5.298,0 0,0"
             style="fill:#ffec00;fill-opacity:1;fill-rule:nonzero;stroke:none"
             id="path124" /></g><g
           id="g126"
           transform="translate(356.4629,528.2637)"><path
             d="M 0,0 V 0 0.245 C 0.082,4.401 2.934,7.906 6.683,9.128 L 6.927,9.21 7.172,9.291 7.335,9.373 H 7.417 L 7.58,9.454 H 7.661 L 7.905,9.536 8.068,9.617 H 8.15 8.313 8.395 8.558 8.639 8.802 8.965 C 8.884,9.536 4.809,7.173 4.075,2.771 3.831,1.305 3.831,-0.081 3.831,-1.304 2.364,-0.978 1.141,-0.57 0,0"
             style="fill:#ffcb00;fill-opacity:1;fill-rule:nonzero;stroke:none"
             id="path128" /></g><g
           id="g130"
           transform="translate(375.5337,528.2637)"><path
             d="m 0,0 v -2.771 c -2.689,-1.303 -5.949,-2.037 -9.535,-2.037 -3.586,0 -6.846,0.734 -9.536,2.037 V 0 c 2.69,-1.304 5.95,-2.037 9.536,-2.037 C -5.949,-2.118 -2.689,-1.304 0,0"
             style="fill:#ee7c00;fill-opacity:1;fill-rule:nonzero;stroke:none"
             id="path132" /></g><g
           id="g134"
           transform="translate(150.3013,535.3262)"><path
             d="m 0,0 c 11.329,6.357 31.508,11.683 56.61,16.817 4.157,0.815 8.394,1.712 12.469,2.445 v -0.244 c -0.081,-2.527 -0.081,-5.053 -0.081,-7.58 1.711,-8.883 21.434,-14.18 47.351,-15.322 2.853,-0.163 5.787,-0.307 8.72,-0.388 C 91.247,-4.436 65.649,-5.49 9.333,-22.034 -2.974,-15.433 -7.824,-7.824 0,0"
             style="fill:#4fa26c;fill-opacity:1;fill-rule:nonzero;stroke:none"
             id="path136" /></g><g
           id="g138"
           transform="translate(278.3862,485.3135)"><path
             d="m 0,0 c -70.252,0 -128.362,19.886 -137.164,33.904 -0.49,0.797 -1.222,1.985 -1.222,3.423 0,4.727 3.618,9.018 10.301,12.686 -22.82,-22.821 60.848,-43.329 128.003,-43.329 67.156,0 150.612,20.537 127.874,43.194 6.683,-3.749 10.431,-7.905 10.431,-12.551 0,-0.163 0,-0.326 -0.081,-0.407 -0.081,-0.897 -0.408,-1.875 -1.141,-3.016 C 128.362,19.886 70.334,0 0,0"
             style="fill:#006126;fill-opacity:1;fill-rule:nonzero;stroke:none"
             id="path140" /></g><g
           id="g142"
           transform="translate(189.2256,537.8809)"><path
             d="m 0,0 v 0 c 5.298,0 9.536,-4.319 9.536,-9.535 v -0.082 c -2.69,-1.304 -5.95,-2.037 -9.536,-2.037 -3.586,0 -6.846,0.733 -9.535,2.037 v 0.082 C -9.535,-4.319 -5.297,0 0,0"
             style="fill:#ffec00;fill-opacity:1;fill-rule:nonzero;stroke:none"
             id="path144" /></g><g
           id="g146"
           transform="translate(179.6904,528.2637)"><path
             d="M 0,0 V 0 0.245 C 0.082,4.401 2.934,7.906 6.683,9.128 L 6.927,9.21 7.172,9.291 7.335,9.373 H 7.417 L 7.579,9.454 H 7.661 7.824 L 8.068,9.536 8.231,9.617 H 8.313 8.476 8.639 8.802 8.883 9.046 9.209 C 9.128,9.536 5.053,7.173 4.319,2.771 4.075,1.305 4.075,-0.081 4.075,-1.304 2.363,-0.978 1.141,-0.57 0,0"
             style="fill:#ffcb00;fill-opacity:1;fill-rule:nonzero;stroke:none"
             id="path148" /></g><g
           id="g150"
           transform="translate(198.7612,528.2637)"><path
             d="m 0,0 v -2.771 c -2.689,-1.303 -5.95,-2.037 -9.536,-2.037 -3.586,0 -6.845,0.734 -9.535,2.037 V 0 c 2.69,-1.304 5.949,-2.037 9.535,-2.037 C -5.95,-2.118 -2.689,-1.304 0,0"
             style="fill:#ee7c00;fill-opacity:1;fill-rule:nonzero;stroke:none"
             id="path152" /></g></g></g></g></svg>
